<?xml version="1.0" encoding="utf-8"?><!-- Uploaded to: SVG Repo, www.svgrepo.com, Generator: SVG Repo
Mixer Tools -->
<svg width="800" height="800" viewBox="0 0 24 24" fill="none" xmlns="http://www.w3.org/2000/svg">
  <path fill-rule="evenodd" clip-rule="evenodd"
    d="M12 1C12.3038 1 12.5911 1.13809 12.7809 1.3753L20.7809 11.3753C21.073 11.7405 21.073 12.2594 20.7809 12.6247L12.7809 22.6247C12.5911 22.8619 12.3038 23 12 23C11.6962 23 11.4089 22.8619 11.2191 22.6247L3.21913 12.6247C2.92696 12.2594 2.92696 11.7405 3.21913 11.3753L11.2191 1.3753C11.4089 1.13809 11.6962 1 12 1ZM6.65787 12.0713L12 14.4084L17.3421 12.0713L12 10.068L6.65787 12.0713ZM16.6864 14.5412L12.4008 16.4161C12.1453 16.5279 11.8547 16.5279 11.5992 16.4161L7.3136 14.5412L12 20.3992L16.6864 14.5412ZM16.95 9.78819L12.3511 8.06363C12.1247 7.97874 11.8753 7.97874 11.6489 8.06363L7.05005 9.78819L12 3.60078L16.95 9.78819Z"
    fill="#000000" />
</svg>